<?xml version="1.0" encoding="UTF-8" standalone="no"?>
<!-- Created with Inkscape (http://www.inkscape.org/) -->

<svg
   width="210mm"
   height="297mm"
   viewBox="0 0 210 297"
   version="1.1"
   id="svg5"
   inkscape:version="1.1 (c68e22c387, 2021-05-23)"
   sodipodi:docname="logo.svg"
   xmlns:inkscape="http://www.inkscape.org/namespaces/inkscape"
   xmlns:sodipodi="http://sodipodi.sourceforge.net/DTD/sodipodi-0.dtd"
   xmlns:xlink="http://www.w3.org/1999/xlink"
   xmlns="http://www.w3.org/2000/svg"
   xmlns:svg="http://www.w3.org/2000/svg">
  <sodipodi:namedview
     id="namedview7"
     pagecolor="#ffffff"
     bordercolor="#000000"
     borderopacity="1"
     inkscape:pageshadow="0"
     inkscape:pageopacity="0"
     inkscape:pagecheckerboard="false"
     inkscape:document-units="mm"
     showgrid="false"
     showguides="true"
     inkscape:zoom="0.71"
     inkscape:cx="473.94366"
     inkscape:cy="552.11268"
     inkscape:window-width="1304"
     inkscape:window-height="745"
     inkscape:window-x="-8"
     inkscape:window-y="-8"
     inkscape:window-maximized="1"
     inkscape:current-layer="layer1">
    <inkscape:grid
       type="xygrid"
       id="grid9" />
  </sodipodi:namedview>
  <defs
     id="defs2">
    <linearGradient
       inkscape:collect="always"
       id="linearGradient45620-2-3-2">
      <stop
         style="stop-color:#00c9ff;stop-opacity:1"
         offset="0"
         id="stop45616" />
      <stop
         style="stop-color:#000019;stop-opacity:0.95035464"
         offset="1"
         id="stop45618" />
    </linearGradient>
    <linearGradient
       inkscape:collect="always"
       xlink:href="#linearGradient45620-2-3-2"
       id="linearGradient45622"
       x1="64.306335"
       y1="859.56232"
       x2="667.37866"
       y2="196.32658"
       gradientUnits="userSpaceOnUse" />
  </defs>
  <g
     inkscape:label="Layer 1"
     inkscape:groupmode="layer"
     id="layer1"
     style="display:inline">
    <rect
       style="fill:#0000ff;fill-rule:evenodd;stroke-width:0.290194"
       id="rect40"
       width="32.894512"
       height="186.93832"
       x="99.181152"
       y="54.875439"
       transform="matrix(1,0,-0.33979359,0.94050004,0,0)" />
    <path
       id="rect304"
       style="fill:url(#linearGradient45622);fill-rule:evenodd;stroke-width:1.06367;fill-opacity:1"
       d="M 304.38281 195.0625 L 64.306641 859.5625 L 188.63281 859.5625 L 263.40234 652.60938 L 469.41602 652.60938 L 469.56055 652.24805 L 447.64648 591.5918 L 442.50977 591.5918 L 442.50977 577.37695 L 438.57422 566.48438 L 438.57422 591.5918 L 428.76562 591.5918 L 428.76562 539.33594 L 427.87109 536.85938 L 424.96875 536.85938 L 424.96875 573.38477 C 424.96875 578.87716 424.92922 582.41392 424.85156 583.99609 C 424.77391 585.55566 424.41606 586.96864 423.7793 588.23438 C 423.15806 589.5001 422.30396 590.38165 421.2168 590.87891 C 420.14516 591.35356 418.52198 591.5918 416.34766 591.5918 L 411.43359 591.5918 L 411.43359 581.99609 C 412.02377 582.0639 412.45082 582.09766 412.71484 582.09766 C 413.41374 582.09766 413.96534 581.84882 414.36914 581.35156 C 414.77294 580.85431 415.00428 580.24476 415.06641 579.52148 C 415.12853 578.79821 415.16016 577.39583 415.16016 575.31641 L 415.16016 536.85938 L 305.22266 536.85938 L 366.54688 367.12109 L 427.87109 536.85938 L 428.76562 536.85938 L 428.76562 536.70117 L 438.57422 536.70117 L 438.57422 536.85938 L 442.50977 536.85938 L 442.50977 536.70117 L 450.71094 536.70117 L 450.74609 536.85938 L 456.20898 536.85938 L 456.20898 536.70117 L 464.4082 536.70117 L 464.4082 536.85938 L 466.41211 536.85938 L 466.38867 536.70117 L 475.87109 536.70117 C 475.87556 536.74075 475.88594 536.81843 475.89062 536.85938 L 479.97266 536.85938 L 479.99414 536.70117 L 488.21875 536.70117 L 488.19727 536.85938 L 515.73438 536.85938 L 469.56055 652.24805 L 544.46094 859.5625 L 668.78711 859.5625 L 428.70898 195.0625 L 304.38281 195.0625 z M 488.19727 536.85938 L 479.97266 536.85938 L 477.89844 551.65234 C 477.63441 549.4147 477.30029 546.95141 476.89648 544.26172 C 476.39736 540.82788 476.0657 538.38535 475.89062 536.85938 L 466.41211 536.85938 L 469.92969 560.97656 L 466.38867 591.5918 L 475.94141 591.5918 L 476.87305 582.64062 C 477.30791 578.75301 477.64994 575.07927 477.89844 571.62109 C 478.79923 579.46414 479.79174 586.12201 480.87891 591.5918 L 489.96484 591.5918 L 484.79297 560.97656 L 488.19727 536.85938 z M 464.4082 536.85938 L 456.20898 536.85938 L 456.20898 561.41602 L 450.74609 536.85938 L 442.50977 536.85938 L 442.50977 577.37695 L 447.64648 591.5918 L 450.71094 591.5918 L 450.71094 566.63867 L 455.8125 591.5918 L 464.4082 591.5918 L 464.4082 536.85938 z M 438.57422 536.85938 L 428.76562 536.85938 L 428.76562 539.33594 L 438.57422 566.48438 L 438.57422 536.85938 z M 415.16016 536.85938 L 424.96875 536.85938 L 424.96875 536.70117 L 415.16016 536.70117 L 415.16016 536.85938 z M 576.44141 628.51758 C 577.68419 628.52245 578.99752 628.99267 580.37891 629.93164 C 581.97424 631.0127 583.17737 632.70857 583.99023 635.01758 C 584.79012 637.28974 584.98796 639.33901 584.58203 641.16602 C 584.1761 642.99302 583.40697 644.36111 582.27734 645.26953 C 581.16 646.17363 579.37966 647.05559 576.93555 647.91602 L 575.64648 648.37109 L 572.91602 640.61328 L 575.625 639.66016 C 577.33219 639.05916 578.37397 638.60926 578.75195 638.31055 C 579.12994 638.01183 579.22191 637.58589 579.02734 637.0332 C 578.85872 636.55421 578.55985 636.29419 578.13086 636.25195 C 577.70187 636.20972 576.72609 636.45604 575.20312 636.99219 L 560.88867 642.0332 C 559.54994 642.50449 558.69551 642.90133 558.32617 643.22461 C 557.96912 643.54356 557.8809 643.96072 558.0625 644.47656 C 558.26139 645.04153 558.63542 645.33735 559.18359 645.36523 C 559.73609 645.4054 560.70589 645.18194 562.09375 644.69336 L 565.63086 643.44727 L 565.08008 641.88281 L 569.61133 640.28711 L 572.80859 649.36914 L 556.79883 655.00586 L 555.08203 650.12305 L 556.96484 648.65234 C 555.85778 648.4485 554.92786 648.02326 554.17578 647.37695 C 553.44031 646.7386 552.88091 645.87239 552.49609 644.7793 C 552.03778 643.47741 551.92026 642.14594 552.14453 640.7832 C 552.38541 639.42843 552.86981 638.29118 553.5957 637.37305 C 554.32159 636.45491 555.16725 635.74258 556.13477 635.23633 C 557.11456 634.72575 558.63055 634.11074 560.68164 633.38867 L 569.54297 630.26758 C 572.39238 629.26447 574.51636 628.68991 575.91406 628.54297 C 576.08877 628.5246 576.26387 628.51688 576.44141 628.51758 z M 587.68359 647.50781 L 589.61719 652.99805 C 590.90566 656.65807 591.63513 659.18321 591.80664 660.57227 C 591.98247 661.9736 591.62947 663.2845 590.74805 664.50586 C 589.88323 665.73518 588.17908 666.79639 585.63672 667.69141 C 583.31543 668.50859 581.65389 668.76887 580.65234 668.47266 C 579.6508 668.17645 578.77197 667.20901 578.01562 665.57031 C 578.17535 667.23959 578.02891 668.45212 577.57617 669.20508 C 577.12343 669.95804 576.64951 670.48967 576.15234 670.80273 C 575.67178 671.12376 574.22758 671.70919 571.82031 672.55664 L 563.95312 675.32617 L 561.41797 668.12305 L 571.32812 664.63281 C 572.92478 664.07073 573.86826 663.59313 574.1582 663.20117 C 574.45247 662.8215 574.41132 662.09783 574.03516 661.0293 L 560.58789 665.76367 L 557.85742 658.00781 L 587.68359 647.50781 z M 585.31055 657.06055 L 578.67773 659.39453 C 578.98472 660.26655 579.3155 660.83396 579.66992 661.0957 C 580.04095 661.36541 580.88505 661.26928 582.19922 660.80664 L 583.83789 660.22852 C 584.7836 659.89559 585.34388 659.50626 585.51758 659.05859 C 585.6956 658.62321 585.62618 657.95713 585.31055 657.06055 z M 594.83789 667.82812 L 599.39062 680.76172 L 593.42188 682.86328 L 591.59961 677.68555 L 585.94336 679.67578 L 587.64844 684.52148 L 581.97461 686.51953 L 580.26758 681.67383 L 573.71094 683.98242 L 575.71484 689.67578 L 569.74414 691.77734 L 565.00977 678.32812 L 594.83789 667.82812 z M 600.35742 683.50586 L 602.63867 689.99023 L 590.74023 699.06641 L 604.16992 694.33789 L 606.45312 700.82422 L 576.62695 711.32422 L 574.23242 704.52539 L 586.37109 695.71875 L 572.8125 700.49023 L 570.5293 694.00586 L 600.35742 683.50586 z M 607.54883 703.9375 L 610.2793 711.69336 L 580.45312 722.19336 L 577.72266 714.4375 L 607.54883 703.9375 z M 611.375 714.80664 L 613.6582 721.29102 L 601.75781 730.36719 L 615.18945 725.63867 L 617.47266 732.125 L 587.64453 742.625 L 585.25195 735.82617 L 597.39062 727.01758 L 583.83203 731.79102 L 581.54883 725.30664 L 611.375 714.80664 z M 619.17773 736.96875 L 621.9082 744.72461 L 601.97461 751.74219 C 598.99009 752.79285 597.05714 753.44039 596.17578 753.68164 C 595.30671 753.91857 594.43928 753.90596 593.57422 753.64453 C 592.71348 753.39538 591.99669 752.88766 591.42383 752.12305 C 590.86757 751.36639 590.28696 750.12963 589.68164 748.41016 L 588.3125 744.52148 L 593.52734 742.6875 C 593.6548 743.16719 593.75464 743.50996 593.82812 743.71875 C 594.02269 744.27144 594.31074 744.66056 594.69336 744.88477 C 595.07598 745.10897 595.4725 745.17712 595.88281 745.08789 C 596.29313 744.99866 597.06342 744.75521 598.19336 744.35742 L 619.17773 736.96875 z M 623.73047 749.90234 L 627.67969 761.12109 L 599.41602 776.0625 L 596.62109 768.12109 L 601.8457 765.84766 L 600.86719 763.06641 L 595.34375 764.49219 L 592.51562 756.46094 L 623.73047 749.90234 z M 619.15039 758.18164 C 613.17485 759.40181 608.83089 760.37824 606.12109 761.11133 L 607.05664 763.76562 C 610.29582 762.1836 614.32684 760.32145 619.15039 758.18164 z M 590.88086 781.24414 L 599.43945 781.24414 L 599.43945 857.80078 L 590.88086 857.80078 L 590.88086 781.24414 z M 608.06055 781.24414 L 636.875 781.24414 L 636.875 789.9668 L 617.62305 857.80078 L 607.99609 857.80078 L 627.24805 789.9668 L 608.06055 789.9668 L 608.06055 781.24414 z "
       transform="scale(0.26458333)" />
  </g>
</svg>
